<mxfile host="65bd71144e">
    <diagram id="jFzYBbgftCwI5II6J4y2" name="Page-1">
        <mxGraphModel dx="2962" dy="2538" grid="1" gridSize="10" guides="1" tooltips="1" connect="1" arrows="1" fold="1" page="1" pageScale="1" pageWidth="1200" pageHeight="1600" math="0" shadow="0">
            <root>
                <mxCell id="0"/>
                <mxCell id="1" parent="0"/>
                <mxCell id="7" value="Diagrame sequence&amp;nbsp; d&#39;Authentification" style="shape=umlFrame;whiteSpace=wrap;html=1;pointerEvents=0;width=140;height=50;" vertex="1" parent="1">
                    <mxGeometry x="-290" y="-70" width="1480" height="920" as="geometry"/>
                </mxCell>
                <mxCell id="10" value="" style="shape=umlLifeline;perimeter=lifelinePerimeter;whiteSpace=wrap;html=1;container=1;dropTarget=0;collapsible=0;recursiveResize=0;outlineConnect=0;portConstraint=eastwest;newEdgeStyle={&quot;curved&quot;:0,&quot;rounded&quot;:0};participant=umlActor;size=70;" vertex="1" parent="1">
                    <mxGeometry x="-140" y="-40" width="40" height="810" as="geometry"/>
                </mxCell>
                <mxCell id="12" value="AuthController" style="shape=umlLifeline;perimeter=lifelinePerimeter;whiteSpace=wrap;html=1;container=1;dropTarget=0;collapsible=0;recursiveResize=0;outlineConnect=0;portConstraint=eastwest;newEdgeStyle={&quot;curved&quot;:0,&quot;rounded&quot;:0};" vertex="1" parent="1">
                    <mxGeometry x="30" width="100" height="710" as="geometry"/>
                </mxCell>
                <mxCell id="18" value="" style="html=1;points=[[0,0,0,0,5],[0,1,0,0,-5],[1,0,0,0,5],[1,1,0,0,-5]];perimeter=orthogonalPerimeter;outlineConnect=0;targetShapes=umlLifeline;portConstraint=eastwest;newEdgeStyle={&quot;curved&quot;:0,&quot;rounded&quot;:0};" vertex="1" parent="12">
                    <mxGeometry x="45" y="150" width="10" height="540" as="geometry"/>
                </mxCell>
                <mxCell id="13" value=" JwtService" style="shape=umlLifeline;perimeter=lifelinePerimeter;whiteSpace=wrap;html=1;container=1;dropTarget=0;collapsible=0;recursiveResize=0;outlineConnect=0;portConstraint=eastwest;newEdgeStyle={&quot;curved&quot;:0,&quot;rounded&quot;:0};" vertex="1" parent="1">
                    <mxGeometry x="910" width="100" height="640" as="geometry"/>
                </mxCell>
                <mxCell id="14" value=" AuthService" style="shape=umlLifeline;perimeter=lifelinePerimeter;whiteSpace=wrap;html=1;container=1;dropTarget=0;collapsible=0;recursiveResize=0;outlineConnect=0;portConstraint=eastwest;newEdgeStyle={&quot;curved&quot;:0,&quot;rounded&quot;:0};" vertex="1" parent="1">
                    <mxGeometry x="230" width="100" height="670" as="geometry"/>
                </mxCell>
                <mxCell id="21" value="" style="html=1;points=[[0,0,0,0,5],[0,1,0,0,-5],[1,0,0,0,5],[1,1,0,0,-5]];perimeter=orthogonalPerimeter;outlineConnect=0;targetShapes=umlLifeline;portConstraint=eastwest;newEdgeStyle={&quot;curved&quot;:0,&quot;rounded&quot;:0};" vertex="1" parent="14">
                    <mxGeometry x="45" y="150" width="10" height="500" as="geometry"/>
                </mxCell>
                <mxCell id="15" value="PasswordEncoder" style="shape=umlLifeline;perimeter=lifelinePerimeter;whiteSpace=wrap;html=1;container=1;dropTarget=0;collapsible=0;recursiveResize=0;outlineConnect=0;portConstraint=eastwest;newEdgeStyle={&quot;curved&quot;:0,&quot;rounded&quot;:0};" vertex="1" parent="1">
                    <mxGeometry x="680" width="100" height="470" as="geometry"/>
                </mxCell>
                <mxCell id="20" value="" style="html=1;points=[[0,0,0,0,5],[0,1,0,0,-5],[1,0,0,0,5],[1,1,0,0,-5]];perimeter=orthogonalPerimeter;outlineConnect=0;targetShapes=umlLifeline;portConstraint=eastwest;newEdgeStyle={&quot;curved&quot;:0,&quot;rounded&quot;:0};" vertex="1" parent="15">
                    <mxGeometry x="45" y="350" width="10" height="80" as="geometry"/>
                </mxCell>
                <mxCell id="48" value="" style="shape=umlDestroy;whiteSpace=wrap;html=1;strokeWidth=3;targetShapes=umlLifeline;" vertex="1" parent="15">
                    <mxGeometry x="35" y="460" width="30" height="30" as="geometry"/>
                </mxCell>
                <mxCell id="16" value="UserRepository" style="shape=umlLifeline;perimeter=lifelinePerimeter;whiteSpace=wrap;html=1;container=1;dropTarget=0;collapsible=0;recursiveResize=0;outlineConnect=0;portConstraint=eastwest;newEdgeStyle={&quot;curved&quot;:0,&quot;rounded&quot;:0};" vertex="1" parent="1">
                    <mxGeometry x="460" width="100" height="290" as="geometry"/>
                </mxCell>
                <mxCell id="19" value="" style="html=1;points=[[0,0,0,0,5],[0,1,0,0,-5],[1,0,0,0,5],[1,1,0,0,-5]];perimeter=orthogonalPerimeter;outlineConnect=0;targetShapes=umlLifeline;portConstraint=eastwest;newEdgeStyle={&quot;curved&quot;:0,&quot;rounded&quot;:0};" vertex="1" parent="16">
                    <mxGeometry x="45" y="180" width="10" height="70" as="geometry"/>
                </mxCell>
                <mxCell id="17" value="Utilisateur" style="text;html=1;align=center;verticalAlign=middle;resizable=0;points=[];autosize=1;strokeColor=none;fillColor=none;" vertex="1" parent="1">
                    <mxGeometry x="-160" y="30" width="80" height="30" as="geometry"/>
                </mxCell>
                <mxCell id="25" value="login(username, password)" style="html=1;verticalAlign=bottom;endArrow=block;curved=0;rounded=0;" edge="1" parent="1" target="12">
                    <mxGeometry x="0.0025" width="80" relative="1" as="geometry">
                        <mxPoint x="-120" y="140" as="sourcePoint"/>
                        <mxPoint x="-40" y="140" as="targetPoint"/>
                        <mxPoint as="offset"/>
                    </mxGeometry>
                </mxCell>
                <mxCell id="26" value="authenticate(username, password)" style="html=1;verticalAlign=bottom;endArrow=block;curved=0;rounded=0;entryX=0.01;entryY=0.312;entryDx=0;entryDy=0;entryPerimeter=0;" edge="1" parent="1">
                    <mxGeometry x="0.002" width="80" relative="1" as="geometry">
                        <mxPoint x="85" y="169.99999999999991" as="sourcePoint"/>
                        <mxPoint x="275.0999999999999" y="169.99999999999991" as="targetPoint"/>
                        <mxPoint as="offset"/>
                    </mxGeometry>
                </mxCell>
                <mxCell id="27" value="findByUsername(username)" style="html=1;verticalAlign=bottom;endArrow=block;curved=0;rounded=0;entryX=0;entryY=0;entryDx=0;entryDy=5;entryPerimeter=0;" edge="1" parent="1" source="21" target="19">
                    <mxGeometry x="0.0032" width="80" relative="1" as="geometry">
                        <mxPoint x="290" y="185" as="sourcePoint"/>
                        <mxPoint x="370" y="180" as="targetPoint"/>
                        <mxPoint as="offset"/>
                    </mxGeometry>
                </mxCell>
                <mxCell id="29" value="user" style="html=1;verticalAlign=bottom;endArrow=open;dashed=1;endSize=8;curved=0;rounded=0;" edge="1" parent="1" source="16">
                    <mxGeometry x="-0.0245" relative="1" as="geometry">
                        <mxPoint x="440" y="240" as="sourcePoint"/>
                        <mxPoint x="285" y="240" as="targetPoint"/>
                        <mxPoint as="offset"/>
                    </mxGeometry>
                </mxCell>
                <mxCell id="31" value="matches(rawPassword, encodedPassword)" style="html=1;verticalAlign=bottom;endArrow=block;curved=0;rounded=0;" edge="1" parent="1" source="14" target="20">
                    <mxGeometry x="0.0015" width="80" relative="1" as="geometry">
                        <mxPoint x="280" y="340" as="sourcePoint"/>
                        <mxPoint x="740" y="340" as="targetPoint"/>
                        <mxPoint as="offset"/>
                        <Array as="points">
                            <mxPoint x="680" y="360"/>
                        </Array>
                    </mxGeometry>
                </mxCell>
                <mxCell id="32" value="isMatch" style="html=1;verticalAlign=bottom;endArrow=open;dashed=1;endSize=8;curved=0;rounded=0;" edge="1" parent="1" target="14">
                    <mxGeometry x="-0.0044" relative="1" as="geometry">
                        <mxPoint x="720.45" y="430" as="sourcePoint"/>
                        <mxPoint x="520" y="430" as="targetPoint"/>
                        <mxPoint as="offset"/>
                    </mxGeometry>
                </mxCell>
                <mxCell id="39" value="opt" style="shape=umlFrame;whiteSpace=wrap;html=1;pointerEvents=0;" vertex="1" parent="1">
                    <mxGeometry x="-240" y="490" width="1410" height="250" as="geometry"/>
                </mxCell>
                <mxCell id="40" value="isMatch==TRUE" style="text;whiteSpace=wrap;html=1;" vertex="1" parent="1">
                    <mxGeometry x="-240" y="520" width="70" height="40" as="geometry"/>
                </mxCell>
                <mxCell id="41" value="" style="html=1;points=[[0,0,0,0,5],[0,1,0,0,-5],[1,0,0,0,5],[1,1,0,0,-5]];perimeter=orthogonalPerimeter;outlineConnect=0;targetShapes=umlLifeline;portConstraint=eastwest;newEdgeStyle={&quot;curved&quot;:0,&quot;rounded&quot;:0};" vertex="1" parent="1">
                    <mxGeometry x="955" y="535" width="10" height="80" as="geometry"/>
                </mxCell>
                <mxCell id="44" value="generateToken(user)" style="html=1;verticalAlign=bottom;endArrow=block;curved=0;rounded=0;" edge="1" parent="1">
                    <mxGeometry width="80" relative="1" as="geometry">
                        <mxPoint x="290" y="540" as="sourcePoint"/>
                        <mxPoint x="955" y="539.52" as="targetPoint"/>
                    </mxGeometry>
                </mxCell>
                <mxCell id="45" value="jwtToken" style="html=1;verticalAlign=bottom;endArrow=open;dashed=1;endSize=8;curved=0;rounded=0;exitX=0;exitY=1;exitDx=0;exitDy=-5;exitPerimeter=0;" edge="1" parent="1" source="41">
                    <mxGeometry x="-0.0007" relative="1" as="geometry">
                        <mxPoint x="-40" y="610" as="sourcePoint"/>
                        <mxPoint x="280.76195126488096" y="610" as="targetPoint"/>
                        <mxPoint as="offset"/>
                    </mxGeometry>
                </mxCell>
                <mxCell id="46" value="jwtToken" style="html=1;verticalAlign=bottom;endArrow=open;dashed=1;endSize=8;curved=0;rounded=0;" edge="1" parent="1">
                    <mxGeometry relative="1" as="geometry">
                        <mxPoint x="270" y="644.29" as="sourcePoint"/>
                        <mxPoint x="80" y="644.29" as="targetPoint"/>
                    </mxGeometry>
                </mxCell>
                <mxCell id="47" value="HTTP 200 OK (jwtToken)" style="html=1;verticalAlign=bottom;endArrow=open;dashed=1;endSize=8;curved=0;rounded=0;" edge="1" parent="1" target="10">
                    <mxGeometry relative="1" as="geometry">
                        <mxPoint x="70" y="680" as="sourcePoint"/>
                        <mxPoint x="-10" y="680" as="targetPoint"/>
                    </mxGeometry>
                </mxCell>
                <mxCell id="49" value="" style="shape=umlDestroy;whiteSpace=wrap;html=1;strokeWidth=3;targetShapes=umlLifeline;" vertex="1" parent="1">
                    <mxGeometry x="495" y="280" width="30" height="30" as="geometry"/>
                </mxCell>
                <mxCell id="50" value="" style="shape=umlDestroy;whiteSpace=wrap;html=1;strokeWidth=3;targetShapes=umlLifeline;" vertex="1" parent="1">
                    <mxGeometry x="265" y="660" width="30" height="30" as="geometry"/>
                </mxCell>
                <mxCell id="51" value="" style="shape=umlDestroy;whiteSpace=wrap;html=1;strokeWidth=3;targetShapes=umlLifeline;" vertex="1" parent="1">
                    <mxGeometry x="945" y="630" width="30" height="30" as="geometry"/>
                </mxCell>
                <mxCell id="52" value="" style="shape=umlDestroy;whiteSpace=wrap;html=1;strokeWidth=3;targetShapes=umlLifeline;" vertex="1" parent="1">
                    <mxGeometry x="65" y="700" width="30" height="30" as="geometry"/>
                </mxCell>
            </root>
        </mxGraphModel>
    </diagram>
    <diagram id="nZiNNSgj_aYDGD_7aJ8v" name="Page-2">
        <mxGraphModel dx="3068" dy="3008" grid="1" gridSize="10" guides="1" tooltips="1" connect="1" arrows="1" fold="1" page="1" pageScale="1" pageWidth="1200" pageHeight="1600" math="0" shadow="0">
            <root>
                <mxCell id="0"/>
                <mxCell id="1" parent="0"/>
                <mxCell id="AptTLBpeKhgVJGc8sAIb-1" value="BulletinPaieController" style="shape=umlLifeline;perimeter=lifelinePerimeter;whiteSpace=wrap;html=1;container=1;dropTarget=0;collapsible=0;recursiveResize=0;outlineConnect=0;portConstraint=eastwest;newEdgeStyle={&quot;curved&quot;:0,&quot;rounded&quot;:0};" vertex="1" parent="1">
                    <mxGeometry x="390" width="120" height="1000" as="geometry"/>
                </mxCell>
                <mxCell id="T3F-aRD4rhXTgVhTtNQa-1" value="" style="shape=umlLifeline;perimeter=lifelinePerimeter;whiteSpace=wrap;html=1;container=1;dropTarget=0;collapsible=0;recursiveResize=0;outlineConnect=0;portConstraint=eastwest;newEdgeStyle={&quot;curved&quot;:0,&quot;rounded&quot;:0};participant=umlActor;size=70;" vertex="1" parent="1">
                    <mxGeometry x="190" width="50" height="1040" as="geometry"/>
                </mxCell>
                <mxCell id="T3F-aRD4rhXTgVhTtNQa-2" value="Consultation Bulletins" style="shape=umlFrame;whiteSpace=wrap;html=1;pointerEvents=0;width=110;height=50;" vertex="1" parent="1">
                    <mxGeometry x="100" y="-50" width="1390" height="1100" as="geometry"/>
                </mxCell>
                <mxCell id="T3F-aRD4rhXTgVhTtNQa-3" value="Employe" style="text;html=1;align=center;verticalAlign=middle;resizable=0;points=[];autosize=1;strokeColor=none;fillColor=none;" vertex="1" parent="1">
                    <mxGeometry x="150" y="70" width="70" height="30" as="geometry"/>
                </mxCell>
                <mxCell id="T3F-aRD4rhXTgVhTtNQa-6" value="SecurityContextHolder" style="shape=umlLifeline;perimeter=lifelinePerimeter;whiteSpace=wrap;html=1;container=1;dropTarget=0;collapsible=0;recursiveResize=0;outlineConnect=0;portConstraint=eastwest;newEdgeStyle={&quot;curved&quot;:0,&quot;rounded&quot;:0};" vertex="1" parent="1">
                    <mxGeometry x="1320" width="130" height="360" as="geometry"/>
                </mxCell>
                <mxCell id="T3F-aRD4rhXTgVhTtNQa-17" value="" style="html=1;points=[[0,0,0,0,5],[0,1,0,0,-5],[1,0,0,0,5],[1,1,0,0,-5]];perimeter=orthogonalPerimeter;outlineConnect=0;targetShapes=umlLifeline;portConstraint=eastwest;newEdgeStyle={&quot;curved&quot;:0,&quot;rounded&quot;:0};" vertex="1" parent="T3F-aRD4rhXTgVhTtNQa-6">
                    <mxGeometry x="60" y="240" width="10" height="80" as="geometry"/>
                </mxCell>
                <mxCell id="T3F-aRD4rhXTgVhTtNQa-47" value="" style="shape=umlDestroy;whiteSpace=wrap;html=1;strokeWidth=3;targetShapes=umlLifeline;" vertex="1" parent="T3F-aRD4rhXTgVhTtNQa-6">
                    <mxGeometry x="50" y="330" width="30" height="30" as="geometry"/>
                </mxCell>
                <mxCell id="T3F-aRD4rhXTgVhTtNQa-7" value="UserRepository" style="shape=umlLifeline;perimeter=lifelinePerimeter;whiteSpace=wrap;html=1;container=1;dropTarget=0;collapsible=0;recursiveResize=0;outlineConnect=0;portConstraint=eastwest;newEdgeStyle={&quot;curved&quot;:0,&quot;rounded&quot;:0};" vertex="1" parent="1">
                    <mxGeometry x="1090" width="100" height="470" as="geometry"/>
                </mxCell>
                <mxCell id="T3F-aRD4rhXTgVhTtNQa-20" value="" style="html=1;points=[[0,0,0,0,5],[0,1,0,0,-5],[1,0,0,0,5],[1,1,0,0,-5]];perimeter=orthogonalPerimeter;outlineConnect=0;targetShapes=umlLifeline;portConstraint=eastwest;newEdgeStyle={&quot;curved&quot;:0,&quot;rounded&quot;:0};" vertex="1" parent="T3F-aRD4rhXTgVhTtNQa-7">
                    <mxGeometry x="45" y="360" width="10" height="80" as="geometry"/>
                </mxCell>
                <mxCell id="T3F-aRD4rhXTgVhTtNQa-46" value="" style="shape=umlDestroy;whiteSpace=wrap;html=1;strokeWidth=3;targetShapes=umlLifeline;" vertex="1" parent="T3F-aRD4rhXTgVhTtNQa-7">
                    <mxGeometry x="35" y="450" width="30" height="30" as="geometry"/>
                </mxCell>
                <mxCell id="T3F-aRD4rhXTgVhTtNQa-8" value="BulletinPaieRepo" style="shape=umlLifeline;perimeter=lifelinePerimeter;whiteSpace=wrap;html=1;container=1;dropTarget=0;collapsible=0;recursiveResize=0;outlineConnect=0;portConstraint=eastwest;newEdgeStyle={&quot;curved&quot;:0,&quot;rounded&quot;:0};size=40;" vertex="1" parent="1">
                    <mxGeometry x="905" width="100" height="790" as="geometry"/>
                </mxCell>
                <mxCell id="T3F-aRD4rhXTgVhTtNQa-9" value="BulletinPaieService" style="shape=umlLifeline;perimeter=lifelinePerimeter;whiteSpace=wrap;html=1;container=1;dropTarget=0;collapsible=0;recursiveResize=0;outlineConnect=0;portConstraint=eastwest;newEdgeStyle={&quot;curved&quot;:0,&quot;rounded&quot;:0};" vertex="1" parent="1">
                    <mxGeometry x="640" width="120" height="960" as="geometry"/>
                </mxCell>
                <mxCell id="T3F-aRD4rhXTgVhTtNQa-13" value="" style="html=1;points=[[0,0,0,0,5],[0,1,0,0,-5],[1,0,0,0,5],[1,1,0,0,-5]];perimeter=orthogonalPerimeter;outlineConnect=0;targetShapes=umlLifeline;portConstraint=eastwest;newEdgeStyle={&quot;curved&quot;:0,&quot;rounded&quot;:0};" vertex="1" parent="T3F-aRD4rhXTgVhTtNQa-9">
                    <mxGeometry x="55" y="180" width="10" height="270" as="geometry"/>
                </mxCell>
                <mxCell id="T3F-aRD4rhXTgVhTtNQa-45" value="" style="shape=umlDestroy;whiteSpace=wrap;html=1;strokeWidth=3;targetShapes=umlLifeline;" vertex="1" parent="T3F-aRD4rhXTgVhTtNQa-9">
                    <mxGeometry x="45" y="950" width="30" height="30" as="geometry"/>
                </mxCell>
                <mxCell id="T3F-aRD4rhXTgVhTtNQa-10" value="" style="html=1;points=[[0,0,0,0,5],[0,1,0,0,-5],[1,0,0,0,5],[1,1,0,0,-5]];perimeter=orthogonalPerimeter;outlineConnect=0;targetShapes=umlLifeline;portConstraint=eastwest;newEdgeStyle={&quot;curved&quot;:0,&quot;rounded&quot;:0};" vertex="1" parent="1">
                    <mxGeometry x="445" y="130" width="10" height="80" as="geometry"/>
                </mxCell>
                <mxCell id="T3F-aRD4rhXTgVhTtNQa-11" value="getBulletins(employeId ou periode)" style="html=1;verticalAlign=bottom;endArrow=block;curved=0;rounded=0;" edge="1" parent="1" target="T3F-aRD4rhXTgVhTtNQa-10">
                    <mxGeometry x="0.0043" width="80" relative="1" as="geometry">
                        <mxPoint x="210" y="130" as="sourcePoint"/>
                        <mxPoint x="290" y="130" as="targetPoint"/>
                        <mxPoint as="offset"/>
                    </mxGeometry>
                </mxCell>
                <mxCell id="T3F-aRD4rhXTgVhTtNQa-12" value="getBulletinsByEmploye(employeId, periode)" style="html=1;verticalAlign=bottom;endArrow=block;curved=0;rounded=0;" edge="1" parent="1" target="T3F-aRD4rhXTgVhTtNQa-9">
                    <mxGeometry width="80" relative="1" as="geometry">
                        <mxPoint x="460" y="180" as="sourcePoint"/>
                        <mxPoint x="540" y="180" as="targetPoint"/>
                    </mxGeometry>
                </mxCell>
                <mxCell id="T3F-aRD4rhXTgVhTtNQa-15" value="getContext().getAuthentication()" style="html=1;verticalAlign=bottom;endArrow=block;curved=0;rounded=0;" edge="1" parent="1" target="T3F-aRD4rhXTgVhTtNQa-6">
                    <mxGeometry width="80" relative="1" as="geometry">
                        <mxPoint x="710" y="240" as="sourcePoint"/>
                        <mxPoint x="890" y="240" as="targetPoint"/>
                    </mxGeometry>
                </mxCell>
                <mxCell id="T3F-aRD4rhXTgVhTtNQa-16" value="&lt;code&gt;authentication&lt;/code&gt; : &lt;code&gt;getName()&lt;/code&gt;" style="html=1;verticalAlign=bottom;endArrow=open;dashed=1;endSize=8;curved=0;rounded=0;" edge="1" parent="1" source="T3F-aRD4rhXTgVhTtNQa-17" target="T3F-aRD4rhXTgVhTtNQa-9">
                    <mxGeometry x="-0.0007" relative="1" as="geometry">
                        <mxPoint x="1370" y="309.5" as="sourcePoint"/>
                        <mxPoint x="1290" y="309.5" as="targetPoint"/>
                        <Array as="points">
                            <mxPoint x="1340" y="309.5"/>
                        </Array>
                        <mxPoint as="offset"/>
                    </mxGeometry>
                </mxCell>
                <mxCell id="T3F-aRD4rhXTgVhTtNQa-19" value="findByUsername(usernameConnecte)" style="html=1;verticalAlign=bottom;endArrow=block;curved=0;rounded=0;" edge="1" parent="1" target="T3F-aRD4rhXTgVhTtNQa-7">
                    <mxGeometry x="0.0012" width="80" relative="1" as="geometry">
                        <mxPoint x="710" y="360" as="sourcePoint"/>
                        <mxPoint x="790" y="360" as="targetPoint"/>
                        <mxPoint as="offset"/>
                    </mxGeometry>
                </mxCell>
                <mxCell id="T3F-aRD4rhXTgVhTtNQa-21" value="userConnecte" style="html=1;verticalAlign=bottom;endArrow=open;dashed=1;endSize=8;curved=0;rounded=0;" edge="1" parent="1" target="T3F-aRD4rhXTgVhTtNQa-9">
                    <mxGeometry x="-0.2281" relative="1" as="geometry">
                        <mxPoint x="1140" y="440" as="sourcePoint"/>
                        <mxPoint x="1060" y="440" as="targetPoint"/>
                        <mxPoint as="offset"/>
                    </mxGeometry>
                </mxCell>
                <mxCell id="T3F-aRD4rhXTgVhTtNQa-22" value="alt" style="shape=umlFrame;whiteSpace=wrap;html=1;pointerEvents=0;" vertex="1" parent="1">
                    <mxGeometry x="120" y="460" width="1345" height="440" as="geometry"/>
                </mxCell>
                <mxCell id="T3F-aRD4rhXTgVhTtNQa-24" value="" style="html=1;points=[[0,0,0,0,5],[0,1,0,0,-5],[1,0,0,0,5],[1,1,0,0,-5]];perimeter=orthogonalPerimeter;outlineConnect=0;targetShapes=umlLifeline;portConstraint=eastwest;newEdgeStyle={&quot;curved&quot;:0,&quot;rounded&quot;:0};" vertex="1" parent="1">
                    <mxGeometry x="950" y="480" width="10" height="90" as="geometry"/>
                </mxCell>
                <mxCell id="T3F-aRD4rhXTgVhTtNQa-25" value="" style="html=1;points=[[0,0,0,0,5],[0,1,0,0,-5],[1,0,0,0,5],[1,1,0,0,-5]];perimeter=orthogonalPerimeter;outlineConnect=0;targetShapes=umlLifeline;portConstraint=eastwest;newEdgeStyle={&quot;curved&quot;:0,&quot;rounded&quot;:0};" vertex="1" parent="1">
                    <mxGeometry x="695" y="480" width="10" height="80" as="geometry"/>
                </mxCell>
                <mxCell id="T3F-aRD4rhXTgVhTtNQa-26" value="findByEmployeIdAndPeriode(employeId, periode)" style="html=1;verticalAlign=bottom;endArrow=block;curved=0;rounded=0;" edge="1" parent="1" target="T3F-aRD4rhXTgVhTtNQa-24">
                    <mxGeometry x="0.0051" width="80" relative="1" as="geometry">
                        <mxPoint x="700" y="490" as="sourcePoint"/>
                        <mxPoint x="890" y="490" as="targetPoint"/>
                        <mxPoint as="offset"/>
                    </mxGeometry>
                </mxCell>
                <mxCell id="T3F-aRD4rhXTgVhTtNQa-27" value="listeBulletins" style="html=1;verticalAlign=bottom;endArrow=open;dashed=1;endSize=8;curved=0;rounded=0;" edge="1" parent="1">
                    <mxGeometry relative="1" as="geometry">
                        <mxPoint x="950" y="550" as="sourcePoint"/>
                        <mxPoint x="710" y="550" as="targetPoint"/>
                        <mxPoint as="offset"/>
                    </mxGeometry>
                </mxCell>
                <mxCell id="T3F-aRD4rhXTgVhTtNQa-28" value="" style="endArrow=none;dashed=1;html=1;" edge="1" parent="1">
                    <mxGeometry width="50" height="50" relative="1" as="geometry">
                        <mxPoint x="125" y="619" as="sourcePoint"/>
                        <mxPoint x="1470" y="619" as="targetPoint"/>
                    </mxGeometry>
                </mxCell>
                <mxCell id="T3F-aRD4rhXTgVhTtNQa-30" value="" style="html=1;points=[[0,0,0,0,5],[0,1,0,0,-5],[1,0,0,0,5],[1,1,0,0,-5]];perimeter=orthogonalPerimeter;outlineConnect=0;targetShapes=umlLifeline;portConstraint=eastwest;newEdgeStyle={&quot;curved&quot;:0,&quot;rounded&quot;:0};" vertex="1" parent="1">
                    <mxGeometry x="695" y="630" width="10" height="80" as="geometry"/>
                </mxCell>
                <mxCell id="T3F-aRD4rhXTgVhTtNQa-31" value="findByEmployeIdAndPeriode(employeId, periode)" style="html=1;verticalAlign=bottom;endArrow=block;curved=0;rounded=0;entryX=0.16;entryY=0.155;entryDx=0;entryDy=0;entryPerimeter=0;" edge="1" parent="1" source="T3F-aRD4rhXTgVhTtNQa-30" target="T3F-aRD4rhXTgVhTtNQa-32">
                    <mxGeometry x="-0.0024" width="80" relative="1" as="geometry">
                        <mxPoint x="710" y="600" as="sourcePoint"/>
                        <mxPoint x="790" y="600" as="targetPoint"/>
                        <mxPoint as="offset"/>
                    </mxGeometry>
                </mxCell>
                <mxCell id="T3F-aRD4rhXTgVhTtNQa-32" value="" style="html=1;points=[[0,0,0,0,5],[0,1,0,0,-5],[1,0,0,0,5],[1,1,0,0,-5]];perimeter=orthogonalPerimeter;outlineConnect=0;targetShapes=umlLifeline;portConstraint=eastwest;newEdgeStyle={&quot;curved&quot;:0,&quot;rounded&quot;:0};" vertex="1" parent="1">
                    <mxGeometry x="950" y="640" width="10" height="80" as="geometry"/>
                </mxCell>
                <mxCell id="T3F-aRD4rhXTgVhTtNQa-33" value="[userConnecte.getId() == employeId demandé]" style="text;whiteSpace=wrap;html=1;" vertex="1" parent="1">
                    <mxGeometry x="125" y="505" width="280" height="40" as="geometry"/>
                </mxCell>
                <mxCell id="T3F-aRD4rhXTgVhTtNQa-34" value="[userConnecte.getRole() == ADMIN ou userConnecte.estEmployeurDe(employeId)]" style="text;whiteSpace=wrap;html=1;" vertex="1" parent="1">
                    <mxGeometry x="130" y="620" width="250" height="40" as="geometry"/>
                </mxCell>
                <mxCell id="T3F-aRD4rhXTgVhTtNQa-35" value="listeBulletins" style="html=1;verticalAlign=bottom;endArrow=open;dashed=1;endSize=8;curved=0;rounded=0;" edge="1" parent="1">
                    <mxGeometry relative="1" as="geometry">
                        <mxPoint x="950" y="700" as="sourcePoint"/>
                        <mxPoint x="710" y="700" as="targetPoint"/>
                        <mxPoint as="offset"/>
                    </mxGeometry>
                </mxCell>
                <mxCell id="T3F-aRD4rhXTgVhTtNQa-36" value="" style="endArrow=none;dashed=1;html=1;" edge="1" parent="1">
                    <mxGeometry width="50" height="50" relative="1" as="geometry">
                        <mxPoint x="120" y="760" as="sourcePoint"/>
                        <mxPoint x="1465" y="760" as="targetPoint"/>
                    </mxGeometry>
                </mxCell>
                <mxCell id="T3F-aRD4rhXTgVhTtNQa-37" value="" style="html=1;points=[[0,0,0,0,5],[0,1,0,0,-5],[1,0,0,0,5],[1,1,0,0,-5]];perimeter=orthogonalPerimeter;outlineConnect=0;targetShapes=umlLifeline;portConstraint=eastwest;newEdgeStyle={&quot;curved&quot;:0,&quot;rounded&quot;:0};" vertex="1" parent="1">
                    <mxGeometry x="695" y="790" width="10" height="100" as="geometry"/>
                </mxCell>
                <mxCell id="T3F-aRD4rhXTgVhTtNQa-38" value="throw AccessDeniedException()" style="html=1;align=left;spacingLeft=2;endArrow=block;rounded=0;edgeStyle=orthogonalEdgeStyle;curved=0;rounded=0;" edge="1" target="T3F-aRD4rhXTgVhTtNQa-37" parent="1">
                    <mxGeometry relative="1" as="geometry">
                        <mxPoint x="695" y="770" as="sourcePoint"/>
                        <Array as="points">
                            <mxPoint x="725" y="770"/>
                            <mxPoint x="725" y="800"/>
                        </Array>
                        <mxPoint as="offset"/>
                    </mxGeometry>
                </mxCell>
                <mxCell id="T3F-aRD4rhXTgVhTtNQa-39" value="[ELSE]" style="text;whiteSpace=wrap;html=1;" vertex="1" parent="1">
                    <mxGeometry x="130" y="760" width="70" height="40" as="geometry"/>
                </mxCell>
                <mxCell id="T3F-aRD4rhXTgVhTtNQa-41" value="listeBulletins" style="html=1;verticalAlign=bottom;endArrow=open;dashed=1;endSize=8;curved=0;rounded=0;" edge="1" parent="1" target="AptTLBpeKhgVJGc8sAIb-1">
                    <mxGeometry x="0.002" relative="1" as="geometry">
                        <mxPoint x="695" y="920" as="sourcePoint"/>
                        <mxPoint x="615" y="920" as="targetPoint"/>
                        <mxPoint as="offset"/>
                    </mxGeometry>
                </mxCell>
                <mxCell id="T3F-aRD4rhXTgVhTtNQa-43" value="&lt;code&gt;listeBulletins ou acces refusé&lt;/code&gt;" style="html=1;verticalAlign=bottom;endArrow=open;dashed=1;endSize=8;curved=0;rounded=0;" edge="1" parent="1">
                    <mxGeometry relative="1" as="geometry">
                        <mxPoint x="445" y="980" as="sourcePoint"/>
                        <mxPoint x="210" y="980" as="targetPoint"/>
                    </mxGeometry>
                </mxCell>
                <mxCell id="T3F-aRD4rhXTgVhTtNQa-44" value="" style="shape=umlDestroy;whiteSpace=wrap;html=1;strokeWidth=3;targetShapes=umlLifeline;" vertex="1" parent="1">
                    <mxGeometry x="435" y="990" width="30" height="30" as="geometry"/>
                </mxCell>
                <mxCell id="T3F-aRD4rhXTgVhTtNQa-48" value="" style="shape=umlDestroy;whiteSpace=wrap;html=1;strokeWidth=3;targetShapes=umlLifeline;" vertex="1" parent="1">
                    <mxGeometry x="940" y="785" width="30" height="30" as="geometry"/>
                </mxCell>
            </root>
        </mxGraphModel>
    </diagram>
    <diagram id="cruHfQWbUQUTKAJhgZTO" name="Page-3">
        <mxGraphModel dx="1753" dy="804" grid="1" gridSize="10" guides="1" tooltips="1" connect="1" arrows="1" fold="1" page="1" pageScale="1" pageWidth="1200" pageHeight="1600" math="0" shadow="0">
            <root>
                <mxCell id="0"/>
                <mxCell id="1" parent="0"/>
                <mxCell id="R2RoLtQ51BHkg8gWkweF-1" value="Generation Bulletin" style="shape=umlFrame;whiteSpace=wrap;html=1;pointerEvents=0;width=120;height=50;" vertex="1" parent="1">
                    <mxGeometry x="220" y="40" width="1180" height="920" as="geometry"/>
                </mxCell>
                <mxCell id="NSFLnKw_w96-NL0r4ISZ-1" value="" style="shape=umlLifeline;perimeter=lifelinePerimeter;whiteSpace=wrap;html=1;container=1;dropTarget=0;collapsible=0;recursiveResize=0;outlineConnect=0;portConstraint=eastwest;newEdgeStyle={&quot;curved&quot;:0,&quot;rounded&quot;:0};participant=umlActor;size=70;" vertex="1" parent="1">
                    <mxGeometry x="350" y="80" width="50" height="840" as="geometry"/>
                </mxCell>
                <mxCell id="NSFLnKw_w96-NL0r4ISZ-2" value="BulletinPaieService" style="shape=umlLifeline;perimeter=lifelinePerimeter;whiteSpace=wrap;html=1;container=1;dropTarget=0;collapsible=0;recursiveResize=0;outlineConnect=0;portConstraint=eastwest;newEdgeStyle={&quot;curved&quot;:0,&quot;rounded&quot;:0};" vertex="1" parent="1">
                    <mxGeometry x="950" y="120" width="120" height="800" as="geometry"/>
                </mxCell>
                <mxCell id="NSFLnKw_w96-NL0r4ISZ-20" value="" style="html=1;points=[[0,0,0,0,5],[0,1,0,0,-5],[1,0,0,0,5],[1,1,0,0,-5]];perimeter=orthogonalPerimeter;outlineConnect=0;targetShapes=umlLifeline;portConstraint=eastwest;newEdgeStyle={&quot;curved&quot;:0,&quot;rounded&quot;:0};" vertex="1" parent="NSFLnKw_w96-NL0r4ISZ-2">
                    <mxGeometry x="55" y="330" width="10" height="80" as="geometry"/>
                </mxCell>
                <mxCell id="NSFLnKw_w96-NL0r4ISZ-29" value="" style="html=1;points=[[0,0,0,0,5],[0,1,0,0,-5],[1,0,0,0,5],[1,1,0,0,-5]];perimeter=orthogonalPerimeter;outlineConnect=0;targetShapes=umlLifeline;portConstraint=eastwest;newEdgeStyle={&quot;curved&quot;:0,&quot;rounded&quot;:0};" vertex="1" parent="NSFLnKw_w96-NL0r4ISZ-2">
                    <mxGeometry x="55" y="630" width="10" height="140" as="geometry"/>
                </mxCell>
                <mxCell id="NSFLnKw_w96-NL0r4ISZ-3" value=" BulletinPaieController" style="shape=umlLifeline;perimeter=lifelinePerimeter;whiteSpace=wrap;html=1;container=1;dropTarget=0;collapsible=0;recursiveResize=0;outlineConnect=0;portConstraint=eastwest;newEdgeStyle={&quot;curved&quot;:0,&quot;rounded&quot;:0};" vertex="1" parent="1">
                    <mxGeometry x="690" y="120" width="120" height="820" as="geometry"/>
                </mxCell>
                <mxCell id="NSFLnKw_w96-NL0r4ISZ-19" value="" style="html=1;points=[[0,0,0,0,5],[0,1,0,0,-5],[1,0,0,0,5],[1,1,0,0,-5]];perimeter=orthogonalPerimeter;outlineConnect=0;targetShapes=umlLifeline;portConstraint=eastwest;newEdgeStyle={&quot;curved&quot;:0,&quot;rounded&quot;:0};" vertex="1" parent="NSFLnKw_w96-NL0r4ISZ-3">
                    <mxGeometry x="55" y="260" width="10" height="150" as="geometry"/>
                </mxCell>
                <mxCell id="NSFLnKw_w96-NL0r4ISZ-28" value="" style="html=1;points=[[0,0,0,0,5],[0,1,0,0,-5],[1,0,0,0,5],[1,1,0,0,-5]];perimeter=orthogonalPerimeter;outlineConnect=0;targetShapes=umlLifeline;portConstraint=eastwest;newEdgeStyle={&quot;curved&quot;:0,&quot;rounded&quot;:0};" vertex="1" parent="NSFLnKw_w96-NL0r4ISZ-3">
                    <mxGeometry x="55" y="560" width="10" height="210" as="geometry"/>
                </mxCell>
                <mxCell id="NSFLnKw_w96-NL0r4ISZ-4" value="BulletinPaieRepo" style="shape=umlLifeline;perimeter=lifelinePerimeter;whiteSpace=wrap;html=1;container=1;dropTarget=0;collapsible=0;recursiveResize=0;outlineConnect=0;portConstraint=eastwest;newEdgeStyle={&quot;curved&quot;:0,&quot;rounded&quot;:0};" vertex="1" parent="1">
                    <mxGeometry x="1170" y="120" width="100" height="820" as="geometry"/>
                </mxCell>
                <mxCell id="NSFLnKw_w96-NL0r4ISZ-31" value="" style="html=1;points=[[0,0,0,0,5],[0,1,0,0,-5],[1,0,0,0,5],[1,1,0,0,-5]];perimeter=orthogonalPerimeter;outlineConnect=0;targetShapes=umlLifeline;portConstraint=eastwest;newEdgeStyle={&quot;curved&quot;:0,&quot;rounded&quot;:0};" vertex="1" parent="NSFLnKw_w96-NL0r4ISZ-4">
                    <mxGeometry x="45" y="680" width="10" height="70" as="geometry"/>
                </mxCell>
                <mxCell id="NSFLnKw_w96-NL0r4ISZ-11" value=" EmployeController" style="shape=umlLifeline;perimeter=lifelinePerimeter;whiteSpace=wrap;html=1;container=1;dropTarget=0;collapsible=0;recursiveResize=0;outlineConnect=0;portConstraint=eastwest;newEdgeStyle={&quot;curved&quot;:0,&quot;rounded&quot;:0};" vertex="1" parent="1">
                    <mxGeometry x="520" y="120" width="100" height="220" as="geometry"/>
                </mxCell>
                <mxCell id="NSFLnKw_w96-NL0r4ISZ-13" value="" style="html=1;points=[[0,0,0,0,5],[0,1,0,0,-5],[1,0,0,0,5],[1,1,0,0,-5]];perimeter=orthogonalPerimeter;outlineConnect=0;targetShapes=umlLifeline;portConstraint=eastwest;newEdgeStyle={&quot;curved&quot;:0,&quot;rounded&quot;:0};" vertex="1" parent="NSFLnKw_w96-NL0r4ISZ-11">
                    <mxGeometry x="45" y="90" width="10" height="80" as="geometry"/>
                </mxCell>
                <mxCell id="NSFLnKw_w96-NL0r4ISZ-16" value="" style="shape=umlDestroy;whiteSpace=wrap;html=1;strokeWidth=3;targetShapes=umlLifeline;" vertex="1" parent="NSFLnKw_w96-NL0r4ISZ-11">
                    <mxGeometry x="35" y="190" width="30" height="30" as="geometry"/>
                </mxCell>
                <mxCell id="NSFLnKw_w96-NL0r4ISZ-12" value="Employeur/Admin" style="text;whiteSpace=wrap;html=1;" vertex="1" parent="1">
                    <mxGeometry x="320" y="150" width="130" height="40" as="geometry"/>
                </mxCell>
                <mxCell id="NSFLnKw_w96-NL0r4ISZ-14" value="getEmployesList()" style="html=1;verticalAlign=bottom;endArrow=block;curved=0;rounded=0;entryX=0;entryY=0;entryDx=0;entryDy=5;entryPerimeter=0;" edge="1" parent="1" source="NSFLnKw_w96-NL0r4ISZ-1" target="NSFLnKw_w96-NL0r4ISZ-13">
                    <mxGeometry x="-0.0026" width="80" relative="1" as="geometry">
                        <mxPoint x="370" y="210" as="sourcePoint"/>
                        <mxPoint x="450" y="210" as="targetPoint"/>
                        <mxPoint as="offset"/>
                    </mxGeometry>
                </mxCell>
                <mxCell id="NSFLnKw_w96-NL0r4ISZ-15" value="Affichage liste employés" style="html=1;verticalAlign=bottom;endArrow=open;dashed=1;endSize=8;curved=0;rounded=0;" edge="1" parent="1" target="NSFLnKw_w96-NL0r4ISZ-1">
                    <mxGeometry relative="1" as="geometry">
                        <mxPoint x="560" y="280" as="sourcePoint"/>
                        <mxPoint x="480" y="280" as="targetPoint"/>
                    </mxGeometry>
                </mxCell>
                <mxCell id="NSFLnKw_w96-NL0r4ISZ-18" value="requestBulletinForm(employeId)" style="html=1;verticalAlign=bottom;endArrow=block;curved=0;rounded=0;" edge="1" parent="1" target="NSFLnKw_w96-NL0r4ISZ-3">
                    <mxGeometry x="0.0014" width="80" relative="1" as="geometry">
                        <mxPoint x="380" y="380" as="sourcePoint"/>
                        <mxPoint x="460" y="380" as="targetPoint"/>
                        <mxPoint as="offset"/>
                    </mxGeometry>
                </mxCell>
                <mxCell id="NSFLnKw_w96-NL0r4ISZ-21" value="prepareFormWithDefaultTemplate(employeId)" style="html=1;verticalAlign=bottom;endArrow=block;curved=0;rounded=0;entryX=0.5;entryY=0;entryDx=0;entryDy=0;entryPerimeter=0;" edge="1" parent="1" target="NSFLnKw_w96-NL0r4ISZ-20">
                    <mxGeometry width="80" relative="1" as="geometry">
                        <mxPoint x="760" y="450" as="sourcePoint"/>
                        <mxPoint x="960" y="450" as="targetPoint"/>
                        <mxPoint as="offset"/>
                    </mxGeometry>
                </mxCell>
                <mxCell id="NSFLnKw_w96-NL0r4ISZ-23" value="bulletinFormDto (pré-rempli)" style="html=1;verticalAlign=bottom;endArrow=open;dashed=1;endSize=8;curved=0;rounded=0;" edge="1" parent="1">
                    <mxGeometry relative="1" as="geometry">
                        <mxPoint x="1000" y="520" as="sourcePoint"/>
                        <mxPoint x="760" y="520" as="targetPoint"/>
                        <mxPoint as="offset"/>
                    </mxGeometry>
                </mxCell>
                <mxCell id="NSFLnKw_w96-NL0r4ISZ-25" value="Affichage formulaire de génération" style="html=1;verticalAlign=bottom;endArrow=open;dashed=1;endSize=8;curved=0;rounded=0;" edge="1" parent="1" target="NSFLnKw_w96-NL0r4ISZ-1">
                    <mxGeometry x="0.0013" relative="1" as="geometry">
                        <mxPoint x="750" y="580" as="sourcePoint"/>
                        <mxPoint x="670" y="580" as="targetPoint"/>
                        <mxPoint as="offset"/>
                    </mxGeometry>
                </mxCell>
                <mxCell id="NSFLnKw_w96-NL0r4ISZ-27" value="submitBulletinForm(formData)" style="html=1;verticalAlign=bottom;endArrow=block;curved=0;rounded=0;" edge="1" parent="1">
                    <mxGeometry width="80" relative="1" as="geometry">
                        <mxPoint x="380" y="680" as="sourcePoint"/>
                        <mxPoint x="749.5" y="680" as="targetPoint"/>
                    </mxGeometry>
                </mxCell>
                <mxCell id="NSFLnKw_w96-NL0r4ISZ-30" value="genererEtCalculerBulletin(formData)" style="html=1;verticalAlign=bottom;endArrow=block;curved=0;rounded=0;" edge="1" parent="1" target="NSFLnKw_w96-NL0r4ISZ-2">
                    <mxGeometry x="0.0019" width="80" relative="1" as="geometry">
                        <mxPoint x="750" y="750" as="sourcePoint"/>
                        <mxPoint x="830" y="750" as="targetPoint"/>
                        <mxPoint as="offset"/>
                    </mxGeometry>
                </mxCell>
                <mxCell id="NSFLnKw_w96-NL0r4ISZ-32" value="save(nouveauBulletin)" style="html=1;verticalAlign=bottom;endArrow=block;curved=0;rounded=0;" edge="1" parent="1" target="NSFLnKw_w96-NL0r4ISZ-4">
                    <mxGeometry x="0.0025" width="80" relative="1" as="geometry">
                        <mxPoint x="1020" y="800" as="sourcePoint"/>
                        <mxPoint x="1100" y="810" as="targetPoint"/>
                        <Array as="points">
                            <mxPoint x="1120" y="800"/>
                        </Array>
                        <mxPoint as="offset"/>
                    </mxGeometry>
                </mxCell>
                <mxCell id="NSFLnKw_w96-NL0r4ISZ-33" value="bulletinSauvegarde" style="html=1;verticalAlign=bottom;endArrow=open;dashed=1;endSize=8;curved=0;rounded=0;" edge="1" parent="1" source="NSFLnKw_w96-NL0r4ISZ-4">
                    <mxGeometry relative="1" as="geometry">
                        <mxPoint x="1090" y="870" as="sourcePoint"/>
                        <mxPoint x="1010" y="870" as="targetPoint"/>
                    </mxGeometry>
                </mxCell>
                <mxCell id="NSFLnKw_w96-NL0r4ISZ-34" value="bulletinSauvegarde" style="html=1;verticalAlign=bottom;endArrow=open;dashed=1;endSize=8;curved=0;rounded=0;" edge="1" parent="1">
                    <mxGeometry relative="1" as="geometry">
                        <mxPoint x="1009.5" y="880" as="sourcePoint"/>
                        <mxPoint x="760" y="880" as="targetPoint"/>
                    </mxGeometry>
                </mxCell>
                <mxCell id="NSFLnKw_w96-NL0r4ISZ-35" value="Affichage prévisualisation HTML" style="html=1;verticalAlign=bottom;endArrow=open;dashed=1;endSize=8;curved=0;rounded=0;" edge="1" parent="1" target="NSFLnKw_w96-NL0r4ISZ-1">
                    <mxGeometry relative="1" as="geometry">
                        <mxPoint x="740" y="890" as="sourcePoint"/>
                        <mxPoint x="660" y="890" as="targetPoint"/>
                    </mxGeometry>
                </mxCell>
            </root>
        </mxGraphModel>
    </diagram>
</mxfile>
